<svg viewBox="0 0 40 30" fill="none" xmlns="http://www.w3.org/2000/svg"><path d="M0 5C0 2.27 2.27 0 5 0H35C37.73 0 40 2.27 40 5V25C40 27.73 37.73 30 35 30H5C2.27 30 0 27.73 0 25V5ZM13.75 13.75C13.75 12.73 12.89 11.88 11.88 11.88H5.63C4.61 11.88 3.75 12.73 3.75 13.75C3.75 14.77 4.61 15.63 5.63 15.63H11.88C12.89 15.63 13.75 14.77 13.75 13.75ZM13.75 20.63C13.75 19.61 12.89 18.75 11.88 18.75H5.63C4.61 18.75 3.75 19.61 3.75 20.63C3.75 21.64 4.61 22.5 5.63 22.5H11.88C12.89 22.5 13.75 21.64 13.75 20.63ZM17.5 26.25H35C35.7 26.25 36.25 25.7 36.25 25V5C36.25 4.3 35.7 3.75 35 3.75H17.5V26.25ZM13.75 6.88C13.75 5.86 12.89 5 11.88 5H5.63C4.61 5 3.75 5.86 3.75 6.88C3.75 7.89 4.61 8.75 5.63 8.75H11.88C12.89 8.75 13.75 7.89 13.75 6.88Z" fill="#C8C8C8"></path></svg>